<svg width="305" height="72" viewBox="0 0 305 72" fill="none" xmlns="http://www.w3.org/2000/svg">
<rect width="305" height="72" fill="white"/>
<g clip-path="url(#clip0_2_54)">
<path d="M87.19 43H72.44C72.84 46 75.26 48.54 79.32 48.54C80.9523 48.5018 82.5537 48.0877 84 47.33C84.3966 47.1241 84.8383 47.0207 85.2851 47.0291C85.7318 47.0375 86.1694 47.1575 86.5579 47.3781C86.9465 47.5987 87.2737 47.913 87.5099 48.2923C87.746 48.6716 87.8836 49.104 87.91 49.55C87.91 52.37 81.82 53.55 78.65 53.55C71.37 53.55 65.88 48.65 65.88 40.98C65.832 39.3829 66.0992 37.7921 66.6664 36.2984C67.2336 34.8047 68.0895 33.4374 69.1854 32.2746C70.2813 31.1119 71.5955 30.1765 73.0531 29.522C74.5107 28.8675 76.0829 28.5066 77.68 28.46H78.25C80.74 28.4008 83.1812 29.1573 85.2014 30.6142C87.2216 32.0712 88.7101 34.1486 89.44 36.53C89.8489 37.6956 90.0814 38.9157 90.13 40.15C90.1142 40.9166 89.7966 41.6459 89.2461 42.1796C88.6955 42.7132 87.9567 43.0081 87.19 43V43ZM78.19 33.45C76.7142 33.407 75.2784 33.9334 74.18 34.92C73.0817 35.9067 72.4049 37.278 72.29 38.75H84.13C84.1004 38.0223 83.9276 37.3075 83.6215 36.6466C83.3154 35.9858 82.882 35.3917 82.3461 34.8985C81.8101 34.4053 81.1822 34.0227 80.4983 33.7724C79.8143 33.5221 79.0877 33.4092 78.36 33.44L78.19 33.45Z" fill="black"/>
<path d="M108.26 53.51C106.829 53.5194 105.416 53.1931 104.135 52.5575C102.853 51.9219 101.738 50.9945 100.88 49.85V59.26C100.88 60.0928 100.549 60.8915 99.9603 61.4803C99.3714 62.0692 98.5728 62.4 97.74 62.4C96.9072 62.4 96.1085 62.0692 95.5197 61.4803C94.9308 60.8915 94.6 60.0928 94.6 59.26V31.78C94.6132 30.9542 94.9532 30.1674 95.5455 29.5919C96.1379 29.0165 96.9342 28.6993 97.76 28.71C98.5726 28.7152 99.3504 29.0404 99.925 29.615C100.5 30.1896 100.825 30.9674 100.83 31.78V32C101.698 30.8693 102.816 29.9549 104.096 29.3286C105.377 28.7023 106.785 28.381 108.21 28.39C114.35 28.39 118.8 32.94 118.8 40.91C118.8 48.88 114.4 53.51 108.26 53.51ZM106.26 34.01C105.213 34.0321 104.184 34.2889 103.25 34.7614C102.315 35.2339 101.499 35.91 100.86 36.74V45.2C101.509 46.0186 102.328 46.6867 103.26 47.158C104.193 47.6293 105.216 47.8927 106.26 47.93C109.87 47.93 112.26 45.1 112.26 40.93C112.26 36.76 109.89 34 106.28 34L106.26 34.01Z" fill="black"/>
<path d="M132.25 53.51C129.14 53.51 124.14 52.51 122.66 50.35C122.366 49.9654 122.208 49.4941 122.21 49.01C122.223 48.3191 122.503 47.6602 122.992 47.1716C123.48 46.683 124.139 46.4028 124.83 46.39C125.283 46.3802 125.73 46.498 126.12 46.73C128.076 47.8925 130.287 48.5553 132.56 48.66C135.28 48.66 136.56 47.57 136.56 46.09C136.56 42.09 122.35 45.34 122.35 35.94C122.35 31.94 125.86 28.42 132.15 28.42C135.27 28.42 139.53 29.42 140.86 31.34C141.119 31.6977 141.259 32.1281 141.26 32.57C141.243 32.9909 141.119 33.4005 140.9 33.7602C140.681 34.1199 140.374 34.4178 140.007 34.6259C139.641 34.8341 139.228 34.9455 138.807 34.9497C138.386 34.9539 137.97 34.8508 137.6 34.65C135.953 33.7166 134.093 33.2241 132.2 33.22C129.92 33.22 128.44 34.22 128.44 35.59C128.44 39.16 142.6 36.19 142.6 45.84C142.6 50.2 138.89 53.51 132.25 53.51Z" fill="black"/>
<path d="M154 22.67C154.02 23.4174 153.817 24.1539 153.417 24.7857C153.017 25.4175 152.439 25.9161 151.755 26.2182C151.071 26.5203 150.312 26.6122 149.576 26.4823C148.84 26.3523 148.159 26.0063 147.619 25.4883C147.08 24.9703 146.707 24.3036 146.548 23.5731C146.389 22.8426 146.45 22.0812 146.725 21.3857C146.999 20.6902 147.474 20.092 148.089 19.6672C148.705 19.2424 149.432 19.0102 150.18 19V19C150.67 18.988 151.157 19.0727 151.614 19.2492C152.072 19.4257 152.489 19.6905 152.844 20.0285C153.199 20.3666 153.484 20.7712 153.682 21.2193C153.88 21.6674 153.988 22.1501 154 22.64V22.67ZM150.23 53.22C149.822 53.2213 149.418 53.1421 149.041 52.9869C148.663 52.8317 148.32 52.6036 148.032 52.3156C147.743 52.0276 147.513 51.6854 147.357 51.3086C147.201 50.9319 147.12 50.5279 147.12 50.12V31.78C147.133 30.9542 147.473 30.1674 148.066 29.5919C148.658 29.0165 149.454 28.6993 150.28 28.71H150.34C151.152 28.7126 151.931 29.0373 152.504 29.6127C153.078 30.1882 153.4 30.9675 153.4 31.78V50.1C153.4 50.9257 153.073 51.7178 152.49 52.3026C151.907 52.8875 151.116 53.2174 150.29 53.22H150.23Z" fill="black"/>
<path d="M48 46.61H41V53.61H48V46.61Z" fill="#935B9E"/>
<path d="M27 39.61H20V46.61H27V39.61Z" fill="#8FBE54"/>
<path d="M41 32.61V39.61H34V46.61H27V53.61H41V46.61H48V32.61H41Z" fill="#36B6D4"/>
<path d="M34 32.61H27V46.61H34V39.61H41V32.61H34Z" fill="#FACF53"/>
<path d="M41.75 10V17H48.75V24H55.75V10H41.75Z" fill="#D94759"/>
<path d="M27 25.61V18.61H13V53.61H27V46.61H20V39.61H27V32.61H20V25.61H27Z" fill="#4B4B99"/>
<path d="M34 25.61V18.61H27V25.61H20V32.61H41V25.61H34Z" fill="#E4803E"/>
<path d="M187.85 32.22H189.23V40.41H187.85V32.22Z" fill="black"/>
<path d="M192 32.39C192.084 32.4753 192.15 32.577 192.193 32.6889C192.236 32.8007 192.255 32.9203 192.25 33.04C192.248 33.1715 192.231 33.3023 192.2 33.43C192.2 33.55 192.1 33.74 192.01 33.99L191.43 35.56H190.54L190.98 33.86C190.822 33.8076 190.688 33.7014 190.6 33.56C190.504 33.4076 190.455 33.2301 190.46 33.05C190.453 32.9293 190.473 32.8085 190.518 32.6962C190.563 32.584 190.632 32.4829 190.72 32.4C190.893 32.2361 191.122 32.1448 191.36 32.1448C191.598 32.1448 191.827 32.2361 192 32.4V32.39Z" fill="black"/>
<path d="M198.65 37.9H194C194.077 38.3031 194.306 38.6611 194.64 38.9C195.008 39.1674 195.456 39.3014 195.91 39.28C196.207 39.2907 196.502 39.2392 196.778 39.129C197.053 39.0188 197.303 38.8522 197.51 38.64L198.25 39.49C197.983 39.8106 197.639 40.0583 197.25 40.21C196.753 40.3916 196.225 40.4727 195.696 40.4487C195.167 40.4246 194.649 40.2959 194.17 40.07C193.702 39.8276 193.314 39.4563 193.05 39C192.791 38.5226 192.655 37.9881 192.655 37.445C192.655 36.9019 192.791 36.3674 193.05 35.89C193.303 35.4369 193.677 35.063 194.13 34.81C194.609 34.5569 195.143 34.4246 195.685 34.4246C196.227 34.4246 196.761 34.5569 197.24 34.81C197.687 35.0638 198.055 35.438 198.3 35.89C198.56 36.3824 198.691 36.9331 198.68 37.49C198.67 37.59 198.66 37.72 198.65 37.9ZM194.57 35.9C194.271 36.1563 194.072 36.5108 194.01 36.9H197.35C197.304 36.51 197.111 36.1523 196.81 35.9C196.502 35.6268 196.101 35.4834 195.69 35.5C195.282 35.4895 194.884 35.6282 194.57 35.89V35.9ZM196.22 32.15H197.84L195.92 33.67H194.73L196.22 32.15Z" fill="black"/>
<path d="M200.88 40.1C200.408 39.8465 200.016 39.4653 199.75 39C199.48 38.5244 199.338 37.9869 199.338 37.44C199.338 36.8931 199.48 36.3556 199.75 35.88C200.023 35.4274 200.413 35.0575 200.88 34.81C201.389 34.545 201.957 34.4142 202.53 34.43C203.062 34.4088 203.59 34.5296 204.06 34.78C204.491 34.9989 204.841 35.3491 205.06 35.78L204 36.4C203.85 36.1423 203.632 35.9311 203.37 35.79C203.031 35.6149 202.645 35.5497 202.267 35.6034C201.889 35.6572 201.537 35.8272 201.26 36.09C200.928 36.4575 200.745 36.935 200.745 37.43C200.745 37.925 200.928 38.4025 201.26 38.77C201.539 39.0336 201.892 39.2041 202.272 39.2579C202.652 39.3116 203.039 39.246 203.38 39.07C203.642 38.9289 203.86 38.7177 204.01 38.46L205.07 39.08C204.845 39.5062 204.496 39.8547 204.07 40.08C203.604 40.3233 203.085 40.447 202.56 40.44C201.98 40.4681 201.403 40.3512 200.88 40.1V40.1Z" fill="black"/>
<path d="M207 40.1C206.54 39.8404 206.16 39.46 205.9 39C205.639 38.5214 205.503 37.9851 205.503 37.44C205.503 36.8949 205.639 36.3586 205.9 35.88C206.17 35.4413 206.549 35.0797 207 34.83C207.503 34.5783 208.058 34.4473 208.62 34.4473C209.182 34.4473 209.737 34.5783 210.24 34.83C210.701 35.0825 211.087 35.4514 211.36 35.9C211.625 36.3771 211.765 36.9141 211.765 37.46C211.765 38.0059 211.625 38.5429 211.36 39.02C211.094 39.4772 210.707 39.8513 210.24 40.1C209.737 40.3517 209.182 40.4827 208.62 40.4827C208.058 40.4827 207.503 40.3517 207 40.1V40.1ZM209.87 38.8C210.199 38.4331 210.381 37.9577 210.381 37.465C210.381 36.9723 210.199 36.4969 209.87 36.13C209.709 35.9617 209.515 35.8292 209.3 35.7413C209.084 35.6534 208.853 35.6121 208.62 35.62C208.386 35.6119 208.153 35.6531 207.936 35.741C207.719 35.8289 207.523 35.9614 207.36 36.13C207.045 36.5034 206.872 36.9763 206.872 37.465C206.872 37.9537 207.045 38.4265 207.36 38.8C207.698 39.1275 208.15 39.3106 208.62 39.3106C209.09 39.3106 209.542 39.1275 209.88 38.8H209.87Z" fill="black"/>
<path d="M212.94 32.22H214.32V40.41H212.94V32.22Z" fill="black"/>
<path d="M221.49 37.9H216.86C216.939 38.2997 217.164 38.6559 217.49 38.9C217.864 39.1625 218.313 39.296 218.77 39.28C219.067 39.2907 219.362 39.2392 219.638 39.129C219.913 39.0188 220.163 38.8522 220.37 38.64L221.11 39.49C220.843 39.8106 220.499 40.0583 220.11 40.21C219.612 40.39 219.084 40.4695 218.555 40.4437C218.026 40.418 217.508 40.2876 217.03 40.06C216.556 39.8243 216.16 39.4561 215.89 39C215.621 38.5247 215.483 37.9863 215.49 37.44C215.476 36.8942 215.61 36.3548 215.88 35.88C216.146 35.4304 216.534 35.0661 217 34.83C217.477 34.577 218.01 34.4447 218.55 34.4447C219.09 34.4447 219.623 34.577 220.1 34.83C220.552 35.0784 220.92 35.4539 221.16 35.91C221.429 36.399 221.561 36.9521 221.54 37.51C221.51 37.59 221.5 37.72 221.49 37.9ZM217.41 35.9C217.108 36.1546 216.909 36.5099 216.85 36.9H220.2C220.147 36.6043 220.016 36.3278 219.822 36.0984C219.628 35.8691 219.377 35.6949 219.094 35.5935C218.811 35.4921 218.507 35.4671 218.211 35.5209C217.915 35.5747 217.639 35.7054 217.41 35.9V35.9Z" fill="black"/>
<path d="M231.32 32.22V40.41H230V39.65C229.769 39.9229 229.478 40.1386 229.15 40.28C228.797 40.4197 228.42 40.4909 228.04 40.49C227.506 40.4946 226.98 40.3639 226.51 40.11C226.064 39.8638 225.696 39.4963 225.45 39.05C225.194 38.5608 225.061 38.017 225.061 37.465C225.061 36.913 225.194 36.3692 225.45 35.88C225.702 35.4381 226.068 35.072 226.51 34.82C226.98 34.5692 227.507 34.4419 228.04 34.45C228.407 34.4407 228.771 34.5089 229.11 34.65C229.433 34.7769 229.718 34.9833 229.94 35.25V32.25L231.32 32.22ZM229.1 39.08C229.369 38.9294 229.588 38.7035 229.73 38.43C229.883 38.1295 229.962 37.7971 229.962 37.46C229.962 37.1229 229.883 36.7905 229.73 36.49C229.585 36.2185 229.367 35.9933 229.1 35.84C228.825 35.6921 228.517 35.6147 228.205 35.6147C227.893 35.6147 227.585 35.6921 227.31 35.84C227.048 35.9964 226.834 36.2211 226.69 36.49C226.537 36.7905 226.458 37.1229 226.458 37.46C226.458 37.7971 226.537 38.1295 226.69 38.43C226.831 38.7008 227.046 38.9261 227.31 39.08C227.585 39.2279 227.893 39.3053 228.205 39.3053C228.517 39.3053 228.825 39.2279 229.1 39.08V39.08Z" fill="black"/>
<path d="M234.06 32.39C234.144 32.4753 234.21 32.577 234.253 32.6889C234.296 32.8007 234.315 32.9203 234.31 33.04C234.313 33.1718 234.296 33.3033 234.26 33.43C234.209 33.6205 234.145 33.8076 234.07 33.99L233.5 35.56H232.6L233.04 33.86C232.883 33.8054 232.749 33.6998 232.66 33.56C232.567 33.4068 232.522 33.2292 232.53 33.05C232.524 32.9302 232.543 32.8105 232.586 32.6986C232.629 32.5866 232.695 32.4849 232.78 32.4C232.953 32.2361 233.182 32.1448 233.42 32.1448C233.658 32.1448 233.887 32.2361 234.06 32.4V32.39Z" fill="black"/>
<path d="M235.56 33.3C235.484 33.2247 235.424 33.1351 235.383 33.0364C235.342 32.9378 235.321 32.8319 235.321 32.725C235.321 32.6181 235.342 32.5122 235.383 32.4136C235.424 32.3149 235.484 32.2253 235.56 32.15V32.15C235.645 32.0719 235.744 32.0113 235.852 31.9719C235.96 31.9324 236.075 31.9147 236.19 31.92C236.42 31.9099 236.646 31.9886 236.82 32.14C236.902 32.2103 236.967 32.2979 237.01 32.3966C237.053 32.4952 237.074 32.6023 237.07 32.71C237.075 32.8228 237.056 32.9353 237.014 33.0404C236.973 33.1454 236.91 33.2407 236.83 33.32C236.747 33.4039 236.647 33.4695 236.536 33.5125C236.426 33.5556 236.308 33.5752 236.19 33.57C236.072 33.57 235.956 33.5461 235.847 33.4997C235.739 33.4532 235.641 33.3853 235.56 33.3V33.3ZM235.49 34.51H236.88V40.41H235.49V34.51Z" fill="black"/>
<path d="M243.65 35.1C243.889 35.3583 244.073 35.6628 244.19 35.9947C244.306 36.3266 244.354 36.6789 244.33 37.03V40.41H243V37.21C243.031 36.7871 242.898 36.3684 242.63 36.04C242.498 35.911 242.342 35.81 242.17 35.743C241.998 35.676 241.814 35.6443 241.63 35.65C241.409 35.6389 241.188 35.6742 240.981 35.7534C240.775 35.8326 240.587 35.954 240.43 36.11C240.118 36.4765 239.96 36.9496 239.99 37.43V40.43H238.61V34.53H239.93V35.29C240.16 35.0145 240.456 34.8013 240.79 34.67C241.164 34.5302 241.561 34.459 241.96 34.46C242.584 34.4492 243.189 34.6782 243.65 35.1V35.1Z" fill="black"/>
<path d="M251.82 34.51V39.51C251.82 41.59 250.76 42.62 248.64 42.62C248.096 42.6248 247.554 42.5541 247.03 42.41C246.572 42.2919 246.143 42.0809 245.77 41.79L246.39 40.79C246.688 41.0214 247.028 41.1944 247.39 41.3C247.777 41.4287 248.182 41.4929 248.59 41.49C248.846 41.5055 249.102 41.4701 249.344 41.386C249.586 41.3019 249.809 41.1707 250 41C250.163 40.8177 250.288 40.6038 250.365 40.3716C250.442 40.1394 250.471 39.8938 250.45 39.65V39.35C250.21 39.6052 249.916 39.8034 249.59 39.93C249.236 40.0662 248.859 40.1341 248.48 40.13C247.951 40.137 247.429 40.0133 246.96 39.77C246.519 39.5403 246.149 39.1946 245.89 38.77C245.627 38.3139 245.488 37.7966 245.488 37.27C245.488 36.7434 245.627 36.2261 245.89 35.77C246.145 35.3424 246.516 34.9958 246.96 34.77C247.431 34.5312 247.952 34.4078 248.48 34.41C248.876 34.4089 249.269 34.4801 249.64 34.62C249.983 34.7555 250.285 34.9757 250.52 35.26V34.48L251.82 34.51ZM249.96 38.51C250.127 38.3551 250.258 38.1657 250.344 37.955C250.431 37.7444 250.47 37.5174 250.46 37.29C250.471 37.0655 250.431 36.8414 250.345 36.6339C250.258 36.4263 250.127 36.2406 249.96 36.09C249.599 35.7854 249.142 35.6184 248.67 35.6184C248.198 35.6184 247.741 35.7854 247.38 36.09C247.215 36.2419 247.084 36.4279 246.998 36.635C246.912 36.8422 246.871 37.0657 246.88 37.29C246.87 37.5174 246.909 37.7444 246.996 37.955C247.082 38.1657 247.213 38.3551 247.38 38.51C247.745 38.8238 248.211 38.9956 248.692 38.9937C249.173 38.9919 249.638 38.8166 250 38.5L249.96 38.51Z" fill="black"/>
<path d="M259 37.9H254.37C254.447 38.3031 254.676 38.6611 255.01 38.9C255.378 39.1674 255.826 39.3014 256.28 39.28C256.577 39.2907 256.872 39.2392 257.148 39.129C257.423 39.0188 257.673 38.8522 257.88 38.64L258.62 39.49C258.353 39.8106 258.009 40.0583 257.62 40.21C257.123 40.3916 256.595 40.4727 256.066 40.4487C255.537 40.4246 255.019 40.2959 254.54 40.07C254.061 39.8322 253.662 39.4605 253.39 39C253.131 38.5226 252.995 37.9881 252.995 37.445C252.995 36.9019 253.131 36.3674 253.39 35.89C253.643 35.4369 254.017 35.063 254.47 34.81C254.949 34.5569 255.483 34.4246 256.025 34.4246C256.567 34.4246 257.101 34.5569 257.58 34.81C258.027 35.0638 258.395 35.438 258.64 35.89C258.9 36.3824 259.031 36.9331 259.02 37.49C259 37.59 259 37.72 259 37.9ZM254.92 35.9C254.621 36.1563 254.422 36.5108 254.36 36.9H257.7C257.654 36.51 257.461 36.1523 257.16 35.9C256.852 35.6268 256.451 35.4834 256.04 35.5C255.632 35.4895 255.234 35.6282 254.92 35.89V35.9ZM256.57 32.15H258.19L256.27 33.67H255.08L256.57 32.15Z" fill="black"/>
<path d="M265.3 35.1C265.541 35.3518 265.727 35.6504 265.848 35.9772C265.968 36.3041 266.02 36.6522 266 37V40.38H264.62V37.18C264.649 36.7588 264.521 36.3418 264.26 36.01C264.128 35.881 263.972 35.78 263.8 35.713C263.628 35.646 263.444 35.6143 263.26 35.62C263.039 35.6083 262.818 35.6432 262.611 35.7225C262.404 35.8017 262.217 35.9235 262.06 36.08C261.748 36.4465 261.59 36.9196 261.62 37.4V40.4H260.24V34.5H261.55V35.26C261.784 34.9889 262.079 34.7765 262.41 34.64C262.785 34.5018 263.181 34.4308 263.58 34.43C264.219 34.4216 264.835 34.6619 265.3 35.1V35.1Z" fill="black"/>
<path d="M267.63 33.3C267.554 33.2247 267.494 33.1351 267.453 33.0364C267.412 32.9378 267.391 32.8319 267.391 32.725C267.391 32.6181 267.412 32.5122 267.453 32.4136C267.494 32.3149 267.554 32.2253 267.63 32.15V32.15C267.715 32.0719 267.814 32.0113 267.922 31.9719C268.03 31.9324 268.145 31.9147 268.26 31.92C268.49 31.9119 268.715 31.9904 268.89 32.14C268.972 32.2103 269.037 32.2979 269.08 32.3966C269.123 32.4952 269.144 32.6023 269.14 32.71C269.145 32.8237 269.125 32.937 269.082 33.0423C269.039 33.1476 268.973 33.2423 268.89 33.32C268.809 33.4047 268.711 33.4709 268.602 33.5141C268.494 33.5572 268.377 33.5763 268.26 33.57C268.142 33.57 268.026 33.5461 267.917 33.4997C267.809 33.4532 267.711 33.3853 267.63 33.3V33.3ZM267.56 34.51H268.94V40.41H267.56V34.51Z" fill="black"/>
<path d="M276.11 37.9H271.48C271.559 38.3023 271.788 38.6597 272.12 38.9C272.49 39.1625 272.936 39.296 273.39 39.28C273.687 39.2907 273.982 39.2392 274.258 39.129C274.533 39.0188 274.783 38.8522 274.99 38.64L275.73 39.49C275.463 39.8106 275.119 40.0583 274.73 40.21C274.232 40.39 273.704 40.4695 273.175 40.4437C272.646 40.418 272.128 40.2875 271.65 40.06C271.177 39.8215 270.782 39.454 270.51 39C270.241 38.5247 270.103 37.9863 270.11 37.44C270.102 36.895 270.237 36.3573 270.5 35.88C270.757 35.4292 271.135 35.0588 271.59 34.81C272.071 34.5468 272.612 34.4125 273.16 34.42C273.697 34.4163 274.226 34.5469 274.7 34.8C275.147 35.0538 275.515 35.428 275.76 35.88C276.02 36.3724 276.151 36.923 276.14 37.48C276.13 37.59 276.12 37.72 276.11 37.9ZM272.03 35.9C271.728 36.1546 271.529 36.5099 271.47 36.9H274.82C274.767 36.6043 274.636 36.3278 274.442 36.0984C274.248 35.8691 273.997 35.6949 273.714 35.5935C273.431 35.4921 273.127 35.4671 272.831 35.5209C272.535 35.5747 272.259 35.7054 272.03 35.9V35.9Z" fill="black"/>
<path d="M280.7 34.45V35.76C280.594 35.7501 280.486 35.7501 280.38 35.76C280.149 35.7455 279.917 35.7798 279.7 35.8608C279.483 35.9418 279.285 36.0676 279.12 36.23C278.959 36.4139 278.836 36.628 278.759 36.8597C278.682 37.0915 278.652 37.3364 278.67 37.58V40.44H277.29V34.54H278.6V35.4C278.836 35.0709 279.154 34.8098 279.522 34.643C279.891 34.4762 280.297 34.4096 280.7 34.45V34.45Z" fill="black"/>
<path d="M281.77 33.3C281.694 33.2247 281.634 33.1351 281.593 33.0364C281.552 32.9378 281.531 32.8319 281.531 32.725C281.531 32.6181 281.552 32.5122 281.593 32.4136C281.634 32.3149 281.694 32.2253 281.77 32.15V32.15C281.855 32.0719 281.954 32.0113 282.062 31.9719C282.17 31.9324 282.285 31.9147 282.4 31.92C282.63 31.9099 282.856 31.9886 283.03 32.14C283.112 32.2103 283.177 32.2979 283.22 32.3966C283.263 32.4952 283.284 32.6023 283.28 32.71C283.285 32.8228 283.266 32.9353 283.224 33.0404C283.183 33.1454 283.12 33.2407 283.04 33.32C282.957 33.4039 282.857 33.4695 282.746 33.5125C282.636 33.5556 282.518 33.5752 282.4 33.57C282.282 33.57 282.166 33.5461 282.057 33.4997C281.949 33.4532 281.851 33.3853 281.77 33.3V33.3ZM281.71 34.51H283.09V40.41H281.71V34.51Z" fill="black"/>
<path d="M290.25 37.9H285.62C285.699 38.3023 285.928 38.6597 286.26 38.9C286.633 39.1639 287.083 39.2974 287.54 39.28C287.836 39.2888 288.131 39.2366 288.407 39.1265C288.682 39.0164 288.932 38.8508 289.14 38.64L289.88 39.49C289.611 39.8084 289.267 40.0557 288.88 40.21C288.381 40.3914 287.85 40.4716 287.32 40.4458C286.789 40.4201 286.269 40.2889 285.79 40.06C285.317 39.8215 284.922 39.454 284.65 39C284.381 38.5247 284.243 37.9863 284.25 37.44C284.242 36.895 284.377 36.3573 284.64 35.88C284.9 35.4314 285.277 35.0617 285.73 34.81C286.209 34.5569 286.743 34.4246 287.285 34.4246C287.827 34.4246 288.361 34.5569 288.84 34.81C289.292 35.0584 289.66 35.4339 289.9 35.89C290.16 36.3824 290.291 36.9331 290.28 37.49C290.27 37.59 290.26 37.72 290.25 37.9ZM286.17 35.9C285.868 36.1546 285.669 36.5099 285.61 36.9H289C288.957 36.4925 288.761 36.1168 288.45 35.8492C288.14 35.5817 287.739 35.4425 287.33 35.46C286.92 35.4485 286.52 35.5912 286.21 35.86L286.17 35.9Z" fill="black"/>
<path d="M187.92 46.29C187.769 46.1366 187.685 45.9301 187.685 45.715C187.685 45.4999 187.769 45.2934 187.92 45.14V45.14C188.088 44.9829 188.31 44.8969 188.54 44.9C188.77 44.9019 188.993 44.9831 189.17 45.13C189.253 45.1998 189.319 45.2871 189.364 45.3857C189.409 45.4843 189.432 45.5917 189.43 45.7C189.43 45.8131 189.409 45.9252 189.366 46.0299C189.323 46.1346 189.26 46.2298 189.18 46.31C189.008 46.4681 188.783 46.5559 188.55 46.5559C188.317 46.5559 188.092 46.4681 187.92 46.31V46.29ZM187.85 47.5H189.23V53.4H187.85V47.5Z" fill="black"/>
<path d="M196 48.08C196.237 48.3413 196.419 48.6479 196.534 48.9814C196.649 49.3148 196.695 49.6681 196.67 50.02V53.39H195.3V50.19C195.329 49.772 195.2 49.3582 194.94 49.03C194.808 48.9006 194.652 48.7992 194.48 48.7322C194.308 48.6651 194.124 48.6338 193.94 48.64C193.72 48.6264 193.499 48.6594 193.292 48.737C193.085 48.8145 192.897 48.9348 192.74 49.09C192.582 49.2695 192.462 49.4788 192.386 49.7055C192.311 49.9322 192.282 50.1717 192.3 50.41V53.41H190.92V47.5H192.23V48.26C192.463 47.9875 192.758 47.7749 193.09 47.64C193.464 47.5002 193.861 47.429 194.26 47.43C194.902 47.4162 195.524 47.6488 196 48.08V48.08Z" fill="black"/>
<path d="M199.79 47.19V47.54H201.41V48.64H199.84V53.39H198.46V48.64H197.46V47.54H198.46V47.17C198.444 46.8956 198.484 46.6208 198.579 46.3627C198.673 46.1046 198.82 45.8688 199.01 45.67C199.402 45.3593 199.877 45.1716 200.375 45.1306C200.873 45.0897 201.373 45.1973 201.81 45.44L201.42 46.44C201.198 46.2818 200.932 46.1978 200.66 46.2C200.08 46.24 199.79 46.56 199.79 47.19Z" fill="black"/>
<path d="M203.13 53.08C202.655 52.8398 202.261 52.4639 202 52C201.735 51.5229 201.595 50.9859 201.595 50.44C201.595 49.8941 201.735 49.3571 202 48.88C202.263 48.4234 202.652 48.052 203.12 47.81C203.62 47.5538 204.173 47.4201 204.735 47.4201C205.297 47.4201 205.85 47.5538 206.35 47.81C206.818 48.052 207.207 48.4234 207.47 48.88C207.735 49.3571 207.875 49.8941 207.875 50.44C207.875 50.9859 207.735 51.5229 207.47 52C207.21 52.4588 206.82 52.8309 206.35 53.07C205.852 53.3261 205.301 53.4606 204.741 53.4623C204.181 53.464 203.629 53.333 203.13 53.08V53.08ZM206 51.78C206.329 51.4131 206.511 50.9377 206.511 50.445C206.511 49.9523 206.329 49.4769 206 49.11C205.837 48.9427 205.64 48.8117 205.423 48.7255C205.206 48.6394 204.973 48.6 204.74 48.61C204.508 48.5989 204.276 48.6377 204.061 48.724C203.845 48.8103 203.65 48.9419 203.49 49.11C203.161 49.4769 202.979 49.9523 202.979 50.445C202.979 50.9377 203.161 51.4131 203.49 51.78C203.65 51.9494 203.844 52.0825 204.06 52.1705C204.275 52.2585 204.507 52.2992 204.74 52.29C204.974 52.2981 205.207 52.2569 205.424 52.169C205.641 52.0811 205.837 51.9486 206 51.78V51.78Z" fill="black"/>
<path d="M212.46 47.43V48.75H212.14C211.909 48.7391 211.678 48.7752 211.462 48.8559C211.245 48.9367 211.047 49.0606 210.88 49.22C210.553 49.5946 210.387 50.0837 210.42 50.58V53.43H209V47.5H210.32V48.36C210.562 48.029 210.888 47.7684 211.264 47.6049C211.64 47.4415 212.053 47.3811 212.46 47.43V47.43Z" fill="black"/>
<path d="M222.67 48.08C222.902 48.3438 223.079 48.6513 223.191 48.9845C223.302 49.3176 223.346 49.6696 223.32 50.02V53.39H221.94V50.19C221.972 49.7733 221.847 49.3597 221.59 49.03C221.465 48.8924 221.309 48.7857 221.136 48.718C220.962 48.6504 220.775 48.6237 220.59 48.64C220.383 48.6302 220.175 48.6663 219.984 48.7458C219.792 48.8254 219.62 48.9463 219.48 49.1C219.179 49.4639 219.029 49.929 219.06 50.4V53.4H217.7V50.2C217.73 49.7819 217.61 49.3667 217.36 49.03C217.231 48.8965 217.076 48.7925 216.903 48.7251C216.73 48.6578 216.545 48.6287 216.36 48.64C216.152 48.6295 215.944 48.6643 215.751 48.742C215.557 48.8197 215.383 48.9384 215.24 49.09C214.942 49.4629 214.796 49.9341 214.83 50.41V53.41H213.45V47.5H214.76V48.25C214.987 47.9886 215.271 47.7832 215.59 47.65C215.937 47.5009 216.312 47.4293 216.69 47.44C217.097 47.4287 217.5 47.5109 217.87 47.68C218.204 47.8463 218.484 48.1026 218.68 48.42C218.927 48.1043 219.251 47.8566 219.62 47.7C220.019 47.5193 220.453 47.4304 220.89 47.44C221.215 47.4187 221.54 47.4646 221.847 47.5747C222.153 47.6848 222.433 47.8568 222.67 48.08V48.08Z" fill="black"/>
<path d="M229.16 48.06C229.406 48.3032 229.596 48.5978 229.715 48.9228C229.835 49.2478 229.881 49.5952 229.85 49.94V53.39H228.55V52.68C228.376 52.9458 228.125 53.1517 227.83 53.27C227.47 53.4113 227.086 53.4793 226.7 53.47C226.301 53.479 225.905 53.4005 225.54 53.24C225.228 53.1089 224.96 52.8901 224.77 52.61C224.591 52.3404 224.497 52.0235 224.5 51.7C224.495 51.4573 224.545 51.2167 224.648 50.9965C224.75 50.7764 224.901 50.5826 225.09 50.43C225.657 50.0672 226.333 49.915 227 50H228.53V49.91C228.547 49.7263 228.522 49.5412 228.458 49.3682C228.394 49.1952 228.292 49.0387 228.16 48.91C227.846 48.6702 227.455 48.5529 227.06 48.58C226.721 48.578 226.384 48.6286 226.06 48.73C225.763 48.82 225.487 48.9697 225.25 49.17L224.71 48.17C225.042 47.9182 225.419 47.7316 225.82 47.62C226.269 47.496 226.734 47.4354 227.2 47.44C227.908 47.3966 228.606 47.6176 229.16 48.06V48.06ZM227.91 52.23C228.173 52.0759 228.374 51.8356 228.48 51.55V50.87H227.05C226.26 50.87 225.86 51.13 225.86 51.65C225.855 51.7673 225.88 51.8839 225.932 51.9889C225.985 52.0939 226.063 52.1838 226.16 52.25C226.405 52.4131 226.697 52.4904 226.99 52.47C227.313 52.4759 227.631 52.3929 227.91 52.23V52.23Z" fill="black"/>
<path d="M235 53.07C234.827 53.2108 234.626 53.3131 234.41 53.37C234.17 53.4431 233.92 53.4768 233.67 53.47C233.399 53.4896 233.128 53.4554 232.87 53.3696C232.613 53.2838 232.375 53.148 232.17 52.97C231.986 52.7719 231.845 52.5386 231.753 52.2843C231.662 52.0299 231.624 51.7597 231.64 51.49V48.65H230.64V47.55H231.64V46.2H233V47.55H234.58V48.65H233V51.45C232.989 51.688 233.064 51.922 233.21 52.11C233.289 52.1894 233.385 52.2503 233.49 52.2883C233.596 52.3264 233.708 52.3406 233.82 52.33C234.097 52.3429 234.369 52.258 234.59 52.09L235 53.07Z" fill="black"/>
<path d="M236 46.29C235.924 46.2147 235.864 46.1251 235.823 46.0264C235.782 45.9278 235.76 45.8219 235.76 45.715C235.76 45.6081 235.782 45.5022 235.823 45.4036C235.864 45.3049 235.924 45.2153 236 45.14V45.14C236.171 44.9814 236.397 44.8954 236.63 44.9C236.858 44.8981 237.078 44.98 237.25 45.13C237.333 45.1998 237.399 45.2871 237.444 45.3857C237.489 45.4843 237.512 45.5916 237.51 45.7C237.51 45.8131 237.489 45.9252 237.446 46.0299C237.403 46.1346 237.34 46.2298 237.26 46.31C237.178 46.3931 237.08 46.4583 236.971 46.5014C236.863 46.5444 236.747 46.5644 236.63 46.56C236.512 46.5606 236.395 46.5369 236.287 46.4905C236.179 46.444 236.081 46.3758 236 46.29V46.29ZM236 47.5H237.38V53.4H236V47.5Z" fill="black"/>
<path d="M244.76 47.5V55.5H243.38V52.68C243.144 52.9441 242.851 53.1521 242.524 53.2887C242.197 53.4254 241.844 53.4873 241.49 53.47C240.97 53.471 240.459 53.3439 240 53.1C239.53 52.8508 239.143 52.4681 238.89 52C238.627 51.5123 238.495 50.9641 238.51 50.41C238.499 49.8595 238.63 49.3154 238.89 48.83C239.156 48.3915 239.541 48.0377 240 47.81C240.404 47.593 240.849 47.4655 241.306 47.4362C241.764 47.4068 242.222 47.4763 242.65 47.64C242.977 47.7788 243.265 47.995 243.49 48.27V47.5H244.76ZM242.9 51.78C243.229 51.4131 243.411 50.9377 243.411 50.445C243.411 49.9523 243.229 49.4769 242.9 49.11C242.736 48.9429 242.54 48.8113 242.323 48.7236C242.106 48.6358 241.874 48.5938 241.64 48.6C241.408 48.5939 241.177 48.6361 240.962 48.7239C240.746 48.8117 240.552 48.9432 240.39 49.11C240.061 49.4769 239.879 49.9523 239.879 50.445C239.879 50.9377 240.061 51.4131 240.39 51.78C240.551 51.9483 240.745 52.0808 240.96 52.1687C241.176 52.2566 241.407 52.2979 241.64 52.29C241.874 52.2962 242.106 52.2542 242.323 52.1664C242.54 52.0787 242.736 51.9471 242.9 51.78V51.78Z" fill="black"/>
<path d="M252.11 47.5V53.4H250.8V52.65C250.574 52.9142 250.29 53.123 249.97 53.26C249.632 53.4066 249.268 53.4815 248.9 53.48C248.552 53.5124 248.202 53.4665 247.874 53.3457C247.546 53.2249 247.25 53.0323 247.006 52.7821C246.763 52.5318 246.578 52.2301 246.466 51.8993C246.355 51.5684 246.318 51.2167 246.36 50.87V47.5H247.74V50.68C247.701 51.1083 247.83 51.5349 248.1 51.87C248.229 52.003 248.385 52.1066 248.558 52.1739C248.73 52.2412 248.915 52.2706 249.1 52.26C249.317 52.2712 249.533 52.236 249.735 52.1566C249.937 52.0773 250.119 51.9557 250.27 51.8C250.426 51.6214 250.545 51.4137 250.621 51.1889C250.696 50.9641 250.727 50.7266 250.71 50.49V47.49L252.11 47.5Z" fill="black"/>
<path d="M259.27 50.89H254.65C254.726 51.2911 254.951 51.6486 255.28 51.89C255.653 52.1539 256.103 52.2874 256.56 52.27C256.857 52.2807 257.152 52.2292 257.428 52.119C257.703 52.0088 257.953 51.8422 258.16 51.63L258.9 52.48C258.633 52.8006 258.289 53.0483 257.9 53.2C257.402 53.38 256.874 53.4595 256.345 53.4337C255.816 53.408 255.298 53.2776 254.82 53.05C254.344 52.8176 253.945 52.4531 253.67 52C253.407 51.5238 253.27 50.9888 253.27 50.445C253.27 49.9012 253.407 49.3662 253.67 48.89C253.92 48.4349 254.295 48.0604 254.75 47.81C255.233 47.5514 255.772 47.4173 256.32 47.42C256.857 47.4141 257.387 47.5449 257.86 47.8C258.309 48.0511 258.677 48.426 258.92 48.88C259.18 49.3724 259.311 49.9231 259.3 50.48C259.297 50.6171 259.287 50.7539 259.27 50.89V50.89ZM255.19 48.89C254.894 49.1479 254.699 49.5021 254.64 49.89H258C257.957 49.4843 257.762 49.11 257.454 48.8427C257.146 48.5754 256.748 48.4351 256.34 48.45C255.927 48.4398 255.525 48.5823 255.21 48.85L255.19 48.89Z" fill="black"/>
<path d="M156.66 26C156.66 24.1435 157.397 22.363 158.71 21.0503C160.023 19.7375 161.803 19 163.66 19V20.5C162.212 20.5 160.823 21.0752 159.799 22.0992C158.775 23.1231 158.2 24.5119 158.2 25.96C158.2 27.4081 158.775 28.7969 159.799 29.8208C160.823 30.8448 162.212 31.42 163.66 31.42V33C161.803 33 160.023 32.2625 158.71 30.9497C157.397 29.637 156.66 27.8565 156.66 26Z" fill="#1E1E1C"/>
<path d="M165.88 29C165.247 29.5511 164.439 29.8594 163.6 29.87C163.277 29.9047 162.95 29.8719 162.64 29.7739C162.33 29.6758 162.044 29.5146 161.8 29.3003C161.556 29.086 161.358 28.8234 161.221 28.529C161.083 28.2346 161.008 27.9149 161 27.59C160.999 27.1195 161.145 26.6603 161.417 26.2767C161.69 25.8931 162.075 25.6041 162.52 25.45C162.17 25.0045 161.977 24.4563 161.97 23.89V23.89C161.987 23.6014 162.063 23.3193 162.192 23.0608C162.322 22.8022 162.502 22.5726 162.723 22.3857C162.943 22.1988 163.199 22.0585 163.476 21.9733C163.752 21.8881 164.042 21.8598 164.33 21.89C164.608 21.8635 164.889 21.8955 165.154 21.984C165.419 22.0726 165.662 22.2157 165.869 22.4041C166.075 22.5926 166.24 22.8221 166.352 23.0781C166.464 23.334 166.521 23.6106 166.52 23.89C166.5 24.3544 166.33 24.7998 166.036 25.1601C165.743 25.5204 165.341 25.7764 164.89 25.89L165.89 26.89C166.15 26.49 166.4 26.04 166.65 25.56L167.9 26.25C167.602 26.8204 167.268 27.3715 166.9 27.9L168 29L166.74 29.88L165.88 29ZM164.88 28L163.39 26.49C163.187 26.5712 163.012 26.7084 162.885 26.8854C162.757 27.0625 162.683 27.2722 162.67 27.49V27.49C162.67 28.04 163.12 28.4 163.76 28.4C164.173 28.3862 164.568 28.2308 164.88 27.96V28ZM164.97 23.85C164.976 23.753 164.961 23.6559 164.926 23.5652C164.892 23.4744 164.838 23.3922 164.769 23.3239C164.7 23.2557 164.617 23.2031 164.525 23.1696C164.434 23.1362 164.337 23.1227 164.24 23.13C164.136 23.1254 164.033 23.1429 163.937 23.1814C163.84 23.2199 163.753 23.2784 163.681 23.3532C163.609 23.4279 163.554 23.5171 163.52 23.6149C163.485 23.7126 163.471 23.8166 163.48 23.92V23.92C163.483 24.1094 163.526 24.2961 163.605 24.4682C163.684 24.6404 163.798 24.7942 163.94 24.92C164.61 24.66 164.94 24.37 164.94 23.92" fill="#1E1E1C"/>
<path d="M172 26C172 27.8565 171.263 29.637 169.95 30.9497C168.637 32.2625 166.857 33 165 33V31.5C166.448 31.5 167.837 30.9248 168.861 29.9008C169.885 28.8769 170.46 27.4881 170.46 26.04C170.46 24.5919 169.885 23.2031 168.861 22.1792C167.837 21.1552 166.448 20.58 165 20.58V19C166.857 19 168.637 19.7375 169.95 21.0503C171.263 22.363 172 24.1435 172 26Z" fill="#1E1E1C"/>
</g>
<defs>
<clipPath id="clip0_2_54">
<rect width="277.28" height="52.34" fill="white" transform="translate(13 10)"/>
</clipPath>
</defs>
</svg>
