<svg width="44" height="44" viewBox="0 0 44 44" fill="white" xmlns="http://www.w3.org/2000/svg">
<path d="M20.1666 16.5H23.8333V12.8333H20.1666M22 36.6667C13.915 36.6667 7.33329 30.085 7.33329 22C7.33329 13.915 13.915 7.33333 22 7.33333C30.085 7.33333 36.6666 13.915 36.6666 22C36.6666 30.085 30.085 36.6667 22 36.6667ZM22 3.66666C19.5924 3.66666 17.2084 4.14087 14.9841 5.06221C12.7598 5.98354 10.7387 7.33397 9.03634 9.03637C5.59817 12.4745 3.66663 17.1377 3.66663 22C3.66663 26.8623 5.59817 31.5255 9.03634 34.9636C10.7387 36.666 12.7598 38.0165 14.9841 38.9378C17.2084 39.8591 19.5924 40.3333 22 40.3333C26.8623 40.3333 31.5254 38.4018 34.9636 34.9636C38.4018 31.5255 40.3333 26.8623 40.3333 22C40.3333 19.5924 39.8591 17.2084 38.9378 14.9841C38.0164 12.7598 36.666 10.7388 34.9636 9.03637C33.2612 7.33397 31.2401 5.98354 29.0158 5.06221C26.7915 4.14087 24.4075 3.66666 22 3.66666M20.1666 31.1667H23.8333V20.1667H20.1666V31.1667Z" fill="white"/>
</svg>
