<svg width="130" height="92" viewBox="0 0 130 92" fill="none" xmlns="http://www.w3.org/2000/svg">
<path d="M65 28.75C63.3424 28.75 61.7527 28.0915 60.5806 26.9194C59.4085 25.7473 58.75 24.1576 58.75 22.5C58.75 20.8424 59.4085 19.2527 60.5806 18.0806C61.7527 16.9085 63.3424 16.25 65 16.25C66.6576 16.25 68.2473 16.9085 69.4194 18.0806C70.5915 19.2527 71.25 20.8424 71.25 22.5C71.25 23.3208 71.0883 24.1335 70.7742 24.8918C70.4602 25.6501 69.9998 26.3391 69.4194 26.9194C68.8391 27.4998 68.1501 27.9602 67.3918 28.2742C66.6335 28.5883 65.8208 28.75 65 28.75V28.75ZM65 5C60.3587 5 55.9075 6.84374 52.6256 10.1256C49.3437 13.4075 47.5 17.8587 47.5 22.5C47.5 35.625 65 55 65 55C65 55 82.5 35.625 82.5 22.5C82.5 17.8587 80.6563 13.4075 77.3744 10.1256C74.0925 6.84374 69.6413 5 65 5V5Z" fill="#EC9F05"/>
<rect x="55" y="12" width="20" height="24" fill="#EC9F05"/>
<path d="M63.6945 14V23H54.8145V25.4H63.6945V34.4H66.2945V25.4H75.2145V23H66.2945V14H63.6945Z" fill="white"/>
<path d="M18.3444 79.712L15.2724 70.832H12.8724L16.9684 82H19.6884L23.7844 70.832H21.4004L18.3444 79.712ZM33.6874 77.568C33.6874 74.768 31.6874 72.992 29.1274 72.992C26.5674 72.992 24.5674 74.768 24.5674 77.568C24.5674 80.352 26.5034 82.144 29.0634 82.144C31.6394 82.144 33.6874 80.352 33.6874 77.568ZM26.8394 77.568C26.8394 75.792 27.9114 74.944 29.0954 74.944C30.2794 74.944 31.3834 75.792 31.3834 77.568C31.3834 79.328 30.2474 80.192 29.0634 80.192C27.8634 80.192 26.8394 79.328 26.8394 77.568ZM35.3306 82H37.5706V73.136H35.3306V82ZM36.4666 72.08C37.2506 72.08 37.8426 71.504 37.8426 70.768C37.8426 70.032 37.2506 69.456 36.4666 69.456C35.6666 69.456 35.0906 70.032 35.0906 70.768C35.0906 71.504 35.6666 72.08 36.4666 72.08ZM42.0237 77.584C42.0237 75.872 42.8237 75.36 44.1517 75.36H44.7437V73.008C43.5117 73.008 42.5837 73.6 42.0237 74.512V73.136H39.7837V82H42.0237V77.584ZM50.0649 82H52.3049V70.16H50.0649V82ZM58.3261 74.832C59.4781 74.832 60.4061 75.568 60.4381 76.736H56.2301C56.4061 75.52 57.2541 74.832 58.3261 74.832ZM62.5341 79.216H60.1181C59.8301 79.808 59.3021 80.288 58.3421 80.288C57.2221 80.288 56.3261 79.552 56.2141 78.24H62.6941C62.7421 77.952 62.7581 77.664 62.7581 77.376C62.7581 74.736 60.9501 72.992 58.3901 72.992C55.7661 72.992 53.9421 74.768 53.9421 77.568C53.9421 80.352 55.8141 82.144 58.3901 82.144C60.5821 82.144 62.0541 80.848 62.5341 79.216ZM71.2731 79.472C71.2091 76.224 66.2971 77.232 66.2971 75.616C66.2971 75.104 66.7291 74.768 67.5611 74.768C68.4411 74.768 68.9851 75.232 69.0491 75.92H71.1931C71.0651 74.16 69.7691 72.992 67.6251 72.992C65.4331 72.992 64.1211 74.176 64.1211 75.648C64.1211 78.896 69.1291 77.888 69.1291 79.472C69.1291 79.984 68.6491 80.384 67.7691 80.384C66.8731 80.384 66.2491 79.872 66.1691 79.2H63.9131C64.0091 80.848 65.5611 82.144 67.7851 82.144C69.9451 82.144 71.2731 80.992 71.2731 79.472ZM75.9803 73.136L79.2443 82H81.9643L85.2443 73.136H82.8603L80.6203 79.936L78.3803 73.136H75.9803ZM86.5024 82H88.7424V73.136H86.5024V82ZM87.6384 72.08C88.4224 72.08 89.0144 71.504 89.0144 70.768C89.0144 70.032 88.4224 69.456 87.6384 69.456C86.8384 69.456 86.2624 70.032 86.2624 70.768C86.2624 71.504 86.8384 72.08 87.6384 72.08ZM90.9556 82H93.1956V70.16H90.9556V82ZM95.4087 82H97.6487V70.16H95.4087V82ZM103.67 74.832C104.822 74.832 105.75 75.568 105.782 76.736H101.574C101.75 75.52 102.598 74.832 103.67 74.832ZM107.878 79.216H105.462C105.174 79.808 104.646 80.288 103.686 80.288C102.566 80.288 101.67 79.552 101.558 78.24H108.038C108.086 77.952 108.102 77.664 108.102 77.376C108.102 74.736 106.294 72.992 103.734 72.992C101.11 72.992 99.2858 74.768 99.2858 77.568C99.2858 80.352 101.158 82.144 103.734 82.144C105.926 82.144 107.398 80.848 107.878 79.216ZM116.617 79.472C116.553 76.224 111.641 77.232 111.641 75.616C111.641 75.104 112.073 74.768 112.905 74.768C113.785 74.768 114.329 75.232 114.393 75.92H116.537C116.409 74.16 115.113 72.992 112.969 72.992C110.777 72.992 109.465 74.176 109.465 75.648C109.465 78.896 114.473 77.888 114.473 79.472C114.473 79.984 113.993 80.384 113.113 80.384C112.217 80.384 111.593 79.872 111.513 79.2H109.257C109.353 80.848 110.905 82.144 113.129 82.144C115.289 82.144 116.617 80.992 116.617 79.472Z" fill="white"/>
</svg>
