<svg width="46" height="47" viewBox="0 0 46 47" fill="none" xmlns="http://www.w3.org/2000/svg">
<path d="M30.6667 23.5C30.6667 22.4613 31.0706 21.4651 31.7894 20.7305C32.5083 19.996 33.4834 19.5834 34.5 19.5834C35.5167 19.5834 36.4917 19.996 37.2106 20.7305C37.9295 21.4651 38.3334 22.4613 38.3334 23.5C38.3334 24.5388 37.9295 25.535 37.2106 26.2695C36.4917 27.0041 35.5167 27.4167 34.5 27.4167C33.4834 27.4167 32.5083 27.0041 31.7894 26.2695C31.0706 25.535 30.6667 24.5388 30.6667 23.5ZM19.1667 23.5C19.1667 22.4613 19.5706 21.4651 20.2894 20.7305C21.0083 19.996 21.9834 19.5834 23 19.5834C24.0167 19.5834 24.9917 19.996 25.7106 20.7305C26.4295 21.4651 26.8334 22.4613 26.8334 23.5C26.8334 24.5388 26.4295 25.535 25.7106 26.2695C24.9917 27.0041 24.0167 27.4167 23 27.4167C21.9834 27.4167 21.0083 27.0041 20.2894 26.2695C19.5706 25.535 19.1667 24.5388 19.1667 23.5ZM7.66669 23.5C7.66669 22.4613 8.07055 21.4651 8.78944 20.7305C9.50833 19.996 10.4834 19.5834 11.5 19.5834C12.5167 19.5834 13.4917 19.996 14.2106 20.7305C14.9295 21.4651 15.3334 22.4613 15.3334 23.5C15.3334 24.5388 14.9295 25.535 14.2106 26.2695C13.4917 27.0041 12.5167 27.4167 11.5 27.4167C10.4834 27.4167 9.50833 27.0041 8.78944 26.2695C8.07055 25.535 7.66669 24.5388 7.66669 23.5V23.5Z" fill="white"/>
</svg>
