<?xml version="1.0" encoding="UTF-8"?><svg id="Calque_2" xmlns="http://www.w3.org/2000/svg" viewBox="0 0 4392 4392"><defs><style>.cls-1{fill:#ffd400;}.cls-2{fill:#ff9100;}</style></defs><g id="Calque_1-2"><path class="cls-1" d="M2196,0C983.18,0,0,983.18,0,2196s983.18,2196,2196,2196,2196-983.18,2196-2196S3408.82,0,2196,0Zm0,4194c-1103.46,0-1998-894.53-1998-1998S1092.54,198,2196,198s1998,894.54,1998,1998-894.54,1998-1998,1998Z"/><path class="cls-1" d="M3402.05,1274.9s325.01-79.14,458.41-241.58c165.01-200.93,103.14-545.16,274.84-534.4,0,0-464.42-65.25-713.41,247.42-164.79,206.93-132.87,524.28-19.84,528.55Z"/><path class="cls-2" d="M1469.81,2297.69s-75.75,388.34-429.88,843.78c0,0-133.57,50.89-94.44-61.39s258.22-644.07,444.41-821.56c0,0,53.55-65.08,79.92,39.17Z"/><path class="cls-2" d="M1631.33,3246.71s-37.89,598.46,400,598.46,400-598.46,400-598.46h-800Z"/><ellipse class="cls-1" cx="2031.33" cy="3246.71" rx="400" ry="221.33"/><path class="cls-2" d="M1866.67,3188.46c109.78,77.67,219.55,77.67,329.33,0v-454.79s-329.33,0-329.33,0v454.79Z"/><circle class="cls-1" cx="1505.21" cy="2389.25" r="235.75"/><path class="cls-1" d="M1690.03,2153.5h691.87c145.92,0,264.39,118.47,264.39,264.39h0c0,275.56-223.72,499.27-499.27,499.27h-240.65c-270.44,0-490-219.56-490-490h0c0-151.04,122.62-273.66,273.66-273.66Z"/><path class="cls-2" d="M1866.67,2292.46c109.78,77.67,219.55,77.67,329.33,0v-454.79s-329.33,0-329.33,0v454.79Z"/><path class="cls-1" d="M1604.62,1271.23c-53.71,350.4,94.87,775.61,379.84,819.3,284.96,43.68,598.39-310.71,652.11-661.1,53.71-350.4-172.63-564.11-457.59-607.79s-520.64,99.2-574.35,449.6Z"/><circle class="cls-1" cx="2557.46" cy="2389.25" r="235.75"/><path class="cls-2" d="M777.32,3642.51L3275.26,1115.44s201.53,37.42,235.63,200.95L860.54,3701.87s-232.36,180.74-83.22-59.36Z"/><path class="cls-2" d="M2635.53,2382.71s258.21,299.79,396.88,859.79c0,0-42.67,136.41-106.67,36.21s-346.2-601.37-370.43-857.46c0,0-17.99-82.34,80.22-38.54Z"/><path class="cls-2" d="M2919.21,3310.82s-438.34-11.16-1037.45-307.35c0,0-97.07-133.4,35.19-111.8,132.26,21.6,769.49,160,1018.41,326.83,0,0,86.55,45.47-16.15,92.31Z"/><circle class="cls-1" cx="1046.14" cy="3110.08" r="192.91"/><circle class="cls-1" cx="1740.96" cy="2917.17" r="192.91"/><ellipse class="cls-1" cx="2983.89" cy="3246.71" rx="155.5" ry="146.64"/></g></svg>